<svg xmlns="http://www.w3.org/2000/svg" xmlns:xlink="http://www.w3.org/1999/xlink" viewBox="0 0 1100 1199"><defs><style>.cls-1{fill:#fff;}.cls-2{mask:url(#mask);}.cls-3{fill:#aa9906;}.cls-4{filter:url(#luminosity-noclip);}</style><filter id="luminosity-noclip" x="0.5" y="0.5" width="1100" height="1199" filterUnits="userSpaceOnUse" color-interpolation-filters="sRGB"><feFlood flood-color="#fff" result="bg"/><feBlend in="SourceGraphic" in2="bg"/></filter><mask id="mask" x="0" y="0" width="1100" height="1199" maskUnits="userSpaceOnUse"><g class="cls-4"><g transform="translate(-0.5 -0.5)"><path d="M719.22,504.53l-16.41-5.75a40.16,40.16,0,0,0,15.09-31.43V455.63c0-20.83-15.66-38.68-36.4-40.55A40.14,40.14,0,0,0,637.7,455v12.15A40,40,0,0,0,653,498.58l-16.58,5.76a54.6,54.6,0,0,0-26,19.1H565.52V505.77a54.67,54.67,0,0,0-36.38-51.64l-16.41-5.76a40.16,40.16,0,0,0,15.1-31.43v-12c0-19.18-13.31-36.06-32.12-39.85a40.56,40.56,0,0,0-48.88,39.65v12.38a39.62,39.62,0,0,0,15.1,31.12l-16.42,5.7a54.18,54.18,0,0,0-36.38,51.14v18.37H351.05a6.08,6.08,0,0,0-6.08,6.08v50.41a6.08,6.08,0,0,0,6.08,6.07H605.23a5.36,5.36,0,0,1,1.6,0H749.58a6,6,0,0,0,6-6.07V556.18A54.69,54.69,0,0,0,719.22,504.53Zm-69.49-49.82A28.11,28.11,0,0,1,682,427c13.16,1.92,23.86,14.81,23.86,28.12v11.49c0,13.31-10.7,26.2-23.86,28.12a28.11,28.11,0,0,1-32.28-27.76ZM458.86,404.5a28.1,28.1,0,0,1,32.27-27.76c13.16,1.92,23.87,14.81,23.87,28.11v11.5c0,13.3-10.71,26.2-23.87,28.12a28.11,28.11,0,0,1-32.27-27.77ZM500,456.88l5.9,2.05-18.64,32.35-18.65-32.35,5.9-2.05Zm-78.81,48.89a42.58,42.58,0,0,1,28.65-40.17l7.12-2.46,25.12,43.49a6.11,6.11,0,0,0,10.56,0l25.12-43.49,7.12,2.46a42.57,42.57,0,0,1,28.64,40.17v17.67H421.16ZM357,535.47H603.17a53.39,53.39,0,0,0-4,20.2v17.5H357Zm386.57,37.7H611.24V555.45a42.65,42.65,0,0,1,28.64-40.26l24.75-8.59h25.55l24.75,8.59a42.65,42.65,0,0,1,28.64,40.26Z"/><path d="M717.13,218.68H655.79a6.19,6.19,0,0,0-6.29,5.86,6,6,0,0,0,6,6.17h61.74A26.33,26.33,0,0,1,743.57,257v84.5a26.32,26.32,0,0,1-26.32,26.32H631.07a3.8,3.8,0,0,0-3.79,3.8v28.11L596.56,369a3.79,3.79,0,0,0-2.68-1.12h-60a16.43,16.43,0,0,1-16.44-16.43V237a6.32,6.32,0,0,1,6.31-6.31H628.17a1.5,1.5,0,0,0,1-.41c5.4-5.23,1.78-11.62-3.34-11.62H595.2V213a38.48,38.48,0,0,0-38.47-38.47H351.29a6.32,6.32,0,0,0-6.32,6.32V229a1,1,0,0,0,.28.71c5.26,5.66,11.75,2,11.75-3.23V213.73a26.33,26.33,0,0,1,26.32-26.33H556.85a26.33,26.33,0,0,1,26.32,26.33v5H543.84a38.48,38.48,0,0,0-38.47,38.47v66.59h-63.7a6.08,6.08,0,0,0-6.07,6.08v25.76l-30.18-30.06a6.06,6.06,0,0,0-4.29-1.78H361.32a4.31,4.31,0,0,1-4.32-4.31V253.06a1.09,1.09,0,0,0-.28-.72c-5.26-5.59-11.75-2-11.75,3.2v73.93a6.31,6.31,0,0,0,6.31,6.3h47.05l38.89,39.06a6.06,6.06,0,0,0,4.31,1.79,6.08,6.08,0,0,0,6.1-6.22V335.77h57.74v5.65a38.47,38.47,0,0,0,38.47,38.46h47.32l38.61,38.73A6,6,0,0,0,638,419a6.3,6.3,0,0,0,2.15-4.85V379.88h77a38.47,38.47,0,0,0,38.47-38.47V257.15A38.48,38.48,0,0,0,717.13,218.68Z"/></g></g></mask></defs><title>TeamConsulting</title><g id="Capa_2" data-name="Capa 2"><rect class="cls-1" x="126.5" y="169.5" width="903" height="887"/></g><g id="Capa_1" data-name="Capa 1"><g class="cls-2"><rect class="cls-3" width="1100" height="1199"/></g></g></svg>