<svg xmlns="http://www.w3.org/2000/svg" xmlns:xlink="http://www.w3.org/1999/xlink" viewBox="0 0 1100 1199"><defs><style>.cls-1{fill:#fff;}.cls-2{mask:url(#mask);}.cls-3{fill:#05a535;}.cls-4{filter:url(#luminosity-noclip);}</style><filter id="luminosity-noclip" x="0.5" y="0.5" width="1100" height="1199" filterUnits="userSpaceOnUse" color-interpolation-filters="sRGB"><feFlood flood-color="#fff" result="bg"/><feBlend in="SourceGraphic" in2="bg"/></filter><mask id="mask" x="0" y="0" width="1100" height="1199" maskUnits="userSpaceOnUse"><g class="cls-4"><g transform="translate(-0.5 -0.5)"><path d="M747,568.47H353.81a8.77,8.77,0,0,0-.28,17.53H746.77a8.77,8.77,0,0,0,.27-17.53Z"/><path d="M422,466.39H370.14a8.56,8.56,0,0,0-8.55,8.57V577.43a8.56,8.56,0,0,0,8.55,8.57H422a8.57,8.57,0,0,0,8.56-8.57V475A8.56,8.56,0,0,0,422,466.39ZM413,568.47h-34V482.89h34v85.58Z"/><path d="M524.9,379.77H473.05a8.56,8.56,0,0,0-8.55,8.57V577.43a8.56,8.56,0,0,0,8.55,8.57H524.9a8.56,8.56,0,0,0,8.55-8.57V388.34A8.56,8.56,0,0,0,524.9,379.77ZM516,568.47H482V397.3h34V568.47Z"/><path d="M627.81,414.83H576a8.57,8.57,0,0,0-8.56,8.57v154A8.57,8.57,0,0,0,576,586h51.84a8.57,8.57,0,0,0,8.56-8.57v-154A8.57,8.57,0,0,0,627.81,414.83Zm-8.94,153.64h-34V431.33h34Z"/><path d="M729.7,311.71H677.85a8.57,8.57,0,0,0-8.55,8.58V577.43a8.56,8.56,0,0,0,8.55,8.57H729.7a8.56,8.56,0,0,0,8.55-8.57V320.29A8.57,8.57,0,0,0,729.7,311.71Zm-8.94,256.76h-34V328.21h34Z"/><path d="M396.3,328.86a34.29,34.29,0,1,0,34.22,34.28A34.28,34.28,0,0,0,396.3,328.86Zm0,51.43a17.15,17.15,0,1,1,17.11-17.15A17.15,17.15,0,0,1,396.3,380.29Z"/><path d="M499,243.14a34.29,34.29,0,1,0,34.22,34.29A34.29,34.29,0,0,0,499,243.14Zm0,51.43a17.14,17.14,0,1,1,17.11-17.14A17.14,17.14,0,0,1,499,294.57Z"/><path d="M601.61,277.43a34.29,34.29,0,1,0,34.22,34.28A34.29,34.29,0,0,0,601.61,277.43Zm0,51.43a17.15,17.15,0,1,1,17.11-17.15A17.15,17.15,0,0,1,601.61,328.86Z"/><path d="M704.27,174.57a34.29,34.29,0,1,0,34.22,34.29A34.29,34.29,0,0,0,704.27,174.57Zm0,51.43a17.15,17.15,0,1,1,17.11-17.14A17.15,17.15,0,0,1,704.27,226Z"/><path d="M692.19,221a8.56,8.56,0,0,0-12.1,0l-66.38,66.51a8.56,8.56,0,1,0,12.1,12.12l66.38-66.51A8.58,8.58,0,0,0,692.19,221Z"/><path d="M580.93,291.93l-55-15.7a8.46,8.46,0,0,0-10.55,5.9,8.56,8.56,0,0,0,5.86,10.59l55,15.7a8.31,8.31,0,0,0,2.34.33,8.58,8.58,0,0,0,2.35-16.82Z"/><path d="M485.61,288.11a8.55,8.55,0,0,0-12-1.37l-64.5,51.53a8.57,8.57,0,0,0,10.66,13.42l64.5-51.53A8.57,8.57,0,0,0,485.61,288.11Z"/></g></g></mask></defs><title>TeamDevelop</title><g id="Capa_2" data-name="Capa 2"><rect class="cls-1" x="126.5" y="169.5" width="903" height="887"/></g><g id="Capa_1" data-name="Capa 1"><g class="cls-2"><rect class="cls-3" width="1100" height="1199"/></g></g></svg>