<svg xmlns="http://www.w3.org/2000/svg" xmlns:xlink="http://www.w3.org/1999/xlink" viewBox="0 0 1100 1199"><defs><style>.cls-1{fill:#fff;}.cls-2{mask:url(#mask);}.cls-3{fill:#80582a;}.cls-4{filter:url(#luminosity-noclip);}</style><filter id="luminosity-noclip" x="0.5" y="0.5" width="1100" height="1199" filterUnits="userSpaceOnUse" color-interpolation-filters="sRGB"><feFlood flood-color="#fff" result="bg"/><feBlend in="SourceGraphic" in2="bg"/></filter><mask id="mask" x="0" y="0" width="1100" height="1199" maskUnits="userSpaceOnUse"><g class="cls-4"><g transform="translate(-0.5 -0.5)"><path d="M527,384.72c0,8.41-3.26,11.55-8.5,11.55s-8.5-3.14-8.5-11.55V355H492v30.27c0,16.5,10,26,27,26s27-9.52,27-26V355H527v29.72Z"/><polygon points="612.11 355 592.16 355 583.04 368.83 573.69 355 552.87 355 572.04 382.26 552.16 410 573.3 410 582.57 395.31 592.08 410 613.29 410 593.02 381.56 612.11 355"/><path d="M696.15,234.82A205.73,205.73,0,1,0,756.4,380.29,204.39,204.39,0,0,0,696.15,234.82ZM731.89,368H682.83A132.76,132.76,0,0,0,563,248.17V199.11A181.42,181.42,0,0,1,731.89,368ZM550.69,488.54A108.26,108.26,0,1,1,658.94,380.29,108.38,108.38,0,0,1,550.69,488.54ZM422.84,251.84A180.08,180.08,0,0,1,539,199.11v49.06A132.76,132.76,0,0,0,419.17,368H370.11A180.08,180.08,0,0,1,422.84,251.84ZM370.11,392h49.06A132.75,132.75,0,0,0,539,511.83v49.06A181.42,181.42,0,0,1,370.11,392Zm309,116.16A180.08,180.08,0,0,1,563,560.89V511.83A132.75,132.75,0,0,0,682.83,392h49.06A180.08,180.08,0,0,1,679.16,508.16Z"/></g></g></mask></defs><title>TeamUX</title><g id="Capa_2" data-name="Capa 2"><rect class="cls-1" x="126.5" y="169.5" width="903" height="887"/></g><g id="Capa_1" data-name="Capa 1"><g class="cls-2"><rect class="cls-3" width="1100" height="1199"/></g></g></svg>