<svg id="LogoTipo" xmlns="http://www.w3.org/2000/svg" viewBox="0 0 392.44 364.28"><defs><style>.cls-1,.cls-2,.cls-4,.cls-7,.cls-8,.cls-9{fill:#fff;}.cls-2{font-size:50.13px;}.cls-2,.cls-4,.cls-7,.cls-8,.cls-9{stroke:#fff;font-family:Phenomena-Regular, Phenomena;}.cls-3{letter-spacing:-0.02em;}.cls-4,.cls-8{font-size:22px;}.cls-4{letter-spacing:-0.02em;}.cls-5{letter-spacing:0em;}.cls-6{letter-spacing:-0.02em;}.cls-7{font-size:40.35px;}.cls-9{font-size:50.42px;}</style></defs><title>LogoTipo</title><path class="cls-1" d="M975.65,1034V994.87l-21.26-4.54v44.1h0c0,.62,0,1.23.07,1.84h21.29C975.69,1035.5,975.65,1034.73,975.65,1034Z" transform="translate(-928.48 -871.85)"/><path class="cls-1" d="M1006.37,1009.83a24.83,24.83,0,0,1,18.69,20.65l21.48,4.48c0-.34,0-.67,0-1A46.1,46.1,0,0,0,1010.8,989Z" transform="translate(-928.48 -871.85)"/><path class="cls-1" d="M1000.48,1009.12a24,24,0,0,1,3.62.27l4.43-20.82a46.35,46.35,0,0,0-8-.71c-7.68,0-17.06,2.6-22.47,5.94v29.36A24.78,24.78,0,0,1,1000.48,1009.12Z" transform="translate(-928.48 -871.85)"/><polygon class="cls-1" points="47.17 120.65 47.17 80.88 25.91 66.45 25.91 116.12 47.17 120.65"/><path class="cls-1" d="M1025.28,1032.88c0,.36,0,.71,0,1.07a24.83,24.83,0,0,1-24.83,24.82l-1.08,0,4.4,21.15a46.06,46.06,0,0,0,42.63-42.6Z" transform="translate(-928.48 -871.85)"/><path class="cls-1" d="M997,1058.53a24.84,24.84,0,0,1-20.9-19.9H954.64a46.09,46.09,0,0,0,45.84,41.41c.33,0,.65,0,1,0Z" transform="translate(-928.48 -871.85)"/><ellipse class="cls-1" cx="15.21" cy="118.48" rx="10.7" ry="3.54"/><path class="cls-1" d="M969.63,1161.14A5.13,5.13,0,0,1,975,1156h3.46v-2.32a3.26,3.26,0,0,0-3.35-3.56c-1.89,0-3.06,1.32-3.2,3.28,0,.25-.15.36-.36.36h-1.32a.34.34,0,0,1-.35-.36c.17-3,2.17-5.24,5.23-5.24a5.22,5.22,0,0,1,5.38,5.52v7.45a5.45,5.45,0,1,1-10.9,0Zm8.87,0V1158H975a3.14,3.14,0,0,0-3.38,3.17,3.28,3.28,0,0,0,3.46,3.56A3.25,3.25,0,0,0,978.5,1161.14Z" transform="translate(-928.48 -871.85)"/><path class="cls-1" d="M984.09,1166v-12.21a5.32,5.32,0,1,1,10.62,0V1166a.34.34,0,0,1-.36.36H993a.34.34,0,0,1-.36-.36v-12.21c0-2.18-1.24-3.67-3.27-3.67s-3.28,1.49-3.28,3.67V1166a.33.33,0,0,1-.35.36h-1.32A.34.34,0,0,1,984.09,1166Z" transform="translate(-928.48 -871.85)"/><path class="cls-1" d="M998,1161.14a5.13,5.13,0,0,1,5.41-5.13h3.46v-2.32a3.26,3.26,0,0,0-3.35-3.56,3.17,3.17,0,0,0-3.21,3.28c0,.25-.14.36-.35.36h-1.32a.34.34,0,0,1-.36-.36c.18-3,2.17-5.24,5.24-5.24a5.22,5.22,0,0,1,5.38,5.52v7.45a5.45,5.45,0,1,1-10.9,0Zm8.87,0V1158h-3.46a3.14,3.14,0,0,0-3.38,3.17,3.42,3.42,0,1,0,6.84,0Z" transform="translate(-928.48 -871.85)"/><path class="cls-1" d="M1012.83,1166v-24.22a.35.35,0,0,1,.36-.36h1.32a.34.34,0,0,1,.35.36V1166a.33.33,0,0,1-.35.36h-1.32A.34.34,0,0,1,1012.83,1166Z" transform="translate(-928.48 -871.85)"/><path class="cls-1" d="M1029.9,1148.89v19.34a5.21,5.21,0,0,1-5.42,5.59c-3.1,0-5.27-2.24-5.41-5.59a.33.33,0,0,1,.35-.36h1.32a.33.33,0,0,1,.36.36c.07,2.28,1.31,3.63,3.38,3.63s3.39-1.35,3.39-3.63v-4.06a4.32,4.32,0,0,1-3.39,1.81,5.28,5.28,0,0,1-5.41-5.59v-11.5a.33.33,0,0,1,.35-.36h1.32a.34.34,0,0,1,.36.36v11.5a3.39,3.39,0,1,0,6.77,0v-11.5a.33.33,0,0,1,.35-.36h1.32A.34.34,0,0,1,1029.9,1148.89Z" transform="translate(-928.48 -871.85)"/><path class="cls-1" d="M1041.15,1164.81v1.24a.34.34,0,0,1-.36.36h-.46c-3.17,0-5-2.21-5-6v-10h-2.21a.34.34,0,0,1-.36-.35v-1.21a.34.34,0,0,1,.36-.36h2.21v-4.63a.33.33,0,0,1,.35-.36H1037a.34.34,0,0,1,.36.36v4.63h3a.33.33,0,0,1,.35.36v1.21a.33.33,0,0,1-.35.35h-3v10c0,2.63,1,4,3,4h.46A.32.32,0,0,1,1041.15,1164.81Z" transform="translate(-928.48 -871.85)"/><path class="cls-1" d="M1043.89,1144.82a1.33,1.33,0,0,1,1.39-1.38,1.35,1.35,0,0,1,1.39,1.38,1.39,1.39,0,0,1-1.39,1.39A1.34,1.34,0,0,1,1043.89,1144.82Zm.39,21.16v-17.09a.34.34,0,0,1,.36-.36H1046a.33.33,0,0,1,.35.36V1166a.33.33,0,0,1-.35.36h-1.32A.34.34,0,0,1,1044.28,1166Z" transform="translate(-928.48 -871.85)"/><path class="cls-1" d="M1049.94,1161.1v-7.33a5.35,5.35,0,1,1,10.69-.36.34.34,0,0,1-.36.36H1059a.32.32,0,0,1-.36-.36,3.21,3.21,0,0,0-3.31-3.28c-2.07,0-3.31,1.5-3.31,3.64v7.33a3.31,3.31,0,0,0,3.38,3.64c2,0,3.24-1.46,3.38-3.64a.32.32,0,0,1,.36-.35h1.32a.33.33,0,0,1,.35.35c-.17,3.24-2.28,5.6-5.41,5.6A5.29,5.29,0,0,1,1049.94,1161.1Z" transform="translate(-928.48 -871.85)"/><path class="cls-1" d="M1063,1161.1a.33.33,0,0,1,.35-.35h1.32a.31.31,0,0,1,.36.35c.1,2.43,1.31,3.64,3.67,3.64,2.13,0,3.2-1.18,3.2-2.85,0-4.31-8.73-3-8.73-8.91a4.86,4.86,0,0,1,5.13-4.81c3.5,0,5.24,2.07,5.38,5.24a.34.34,0,0,1-.35.36H1072a.33.33,0,0,1-.36-.36,3.11,3.11,0,0,0-3.24-3.28,2.89,2.89,0,0,0-3.2,2.85c0,4.13,8.72,2.78,8.72,8.91a4.9,4.9,0,0,1-5.23,4.81C1065.3,1166.7,1063.16,1164.49,1063,1161.1Z" transform="translate(-928.48 -871.85)"/><path class="cls-1" d="M943.08,1116.53c2.51-1.23,4-4,4-7.64v-2.73c0-5.93-3.8-9.91-9.46-9.91-5.48,0-9.17,4-9.17,9.91v29.29a2,2,0,0,0,2.11,2.1h7.8c5.8,0,9.69-4,9.69-10v-2.79A8.81,8.81,0,0,0,943.08,1116.53Zm-.18-7.64c0,3.77-1.93,5.93-5.3,5.93h-4.91v-8.66c0-3.77,1.81-5.94,5-5.94,3.34,0,5.25,2.17,5.25,5.94Zm-10.21,9.91h5.7c3.48,0,5.48,2.19,5.48,6v2.79c0,3.81-2,6-5.48,6h-5.7Z" transform="translate(-928.48 -871.85)"/><path class="cls-1" d="M960.79,1107.59c-4.94,0-8.46,3.51-8.77,8.77a.92.92,0,0,0,1,1h2.11c.38,0,.85-.16,1-.93.22-3,2-4.88,4.74-4.88,3,0,5,2.08,5,5.3v3.31h-5.13c-5.16,0-9.06,3.7-9.06,8.6a8.8,8.8,0,0,0,9.17,9.23c5.33,0,9.06-3.79,9.06-9.23v-11.91C969.79,1111.38,966.09,1107.59,960.79,1107.59Zm-.17,16.46h5.13v4.67c0,3.28-1.92,5.31-5,5.31s-5.13-2-5.13-5.31C955.6,1126,957.66,1124.05,960.62,1124.05Z" transform="translate(-928.48 -871.85)"/><path class="cls-1" d="M996.29,1107.59a7.44,7.44,0,0,0-6.5,3.84,7.6,7.6,0,0,0-6.55-3.84c-5,0-8.54,3.84-8.54,9.34v19.55a.93.93,0,0,0,1,1h2.11a.93.93,0,0,0,1-1v-19.55c0-3.34,1.73-5.42,4.51-5.42s4.51,2.08,4.51,5.42v19.55a.93.93,0,0,0,1,1h2.11a.94.94,0,0,0,1-1v-19.55c0-3.34,1.72-5.42,4.5-5.42s4.51,2.08,4.51,5.42v19.55a.94.94,0,0,0,1,1h2.11a.94.94,0,0,0,1-1v-19.55C1004.84,1111.43,1001.32,1107.59,996.29,1107.59Z" transform="translate(-928.48 -871.85)"/><path class="cls-1" d="M1019,1107.59a7.17,7.17,0,0,0-5.07,2.21v-12.08a.93.93,0,0,0-1-1h-2.11a.93.93,0,0,0-1,1v31c0,5.5,3.75,9.34,9.11,9.34s9.12-3.84,9.12-9.34v-11.74C1028.09,1111.43,1024.34,1107.59,1019,1107.59Zm0,3.92c3.09,0,5.08,2.13,5.08,5.42v11.74c0,3.29-2,5.42-5.08,5.42s-5.07-2.13-5.07-5.42v-11.74C1013.9,1113.64,1015.89,1111.51,1019,1111.51Z" transform="translate(-928.48 -871.85)"/><path class="cls-1" d="M1041.6,1107.59c-5.4,0-9.17,3.84-9.17,9.34v11.74c0,5.5,3.77,9.34,9.17,9.34s9.17-3.84,9.17-9.34v-11.74C1050.77,1111.43,1047,1107.59,1041.6,1107.59Zm-5.08,9.34c0-3.38,2-5.48,5.08-5.48s5.08,2.1,5.08,5.48v11.74c0,3.38-2,5.47-5.08,5.47s-5.08-2.09-5.08-5.47Z" transform="translate(-928.48 -871.85)"/><path class="cls-1" d="M1064.28,1107.59c-5.4,0-9.17,3.84-9.17,9.34v11.74c0,5.5,3.77,9.34,9.17,9.34s9.17-3.84,9.17-9.34v-11.74C1073.45,1111.43,1069.68,1107.59,1064.28,1107.59Zm-5.08,9.34c0-3.38,2-5.48,5.08-5.48s5.08,2.1,5.08,5.48v11.74c0,3.38-1.95,5.47-5.08,5.47s-5.08-2.09-5.08-5.47Z" transform="translate(-928.48 -871.85)"/><rect class="cls-1" x="167.94" width="3.5" height="364.28"/><text class="cls-2" transform="translate(197.44 144.92)">SO<tspan class="cls-3" x="42.31" y="0">L</tspan><tspan x="58.1" y="0">UCIONES</tspan></text><text class="cls-4" transform="translate(197.89 185)">T<tspan class="cls-5" x="7.24" y="0">ECNO</tspan><tspan class="cls-6" x="43.78" y="0">L</tspan><tspan class="cls-5" x="50.69" y="0">ÓGICAS</tspan></text><text class="cls-7" transform="translate(305.94 185.23)">DESDE</text><text class="cls-8" transform="translate(197.61 214.02)">EL</text><text class="cls-9" transform="translate(212.94 232.21)">NEGOCIO</text><text class="cls-8" transform="translate(350.59 211.09)">PARA</text><text class="cls-8" transform="translate(374.11 231.53)">EL</text><path class="cls-1" d="M1253.43,1116.32a149.26,149.26,0,0,0,13.13,11.69c4.56,3.37,9.57,6,14.73,6.47s10.23-1.72,14.57-5.23a62.77,62.77,0,0,0,11.57-12.93,35.87,35.87,0,0,1-3.43,8.39,35.18,35.18,0,0,1-5.5,7.44,25.49,25.49,0,0,1-7.8,5.59c-.75.35-1.55.59-2.33.88s-1.62.4-2.44.6-1.67.19-2.5.28l-2.52,0a23.87,23.87,0,0,1-9.33-2.9A35.44,35.44,0,0,1,1264,1131,54.15,54.15,0,0,1,1253.43,1116.32Z" transform="translate(-928.48 -871.85)"/><path class="cls-1" d="M1250.83,1129.69c.07-2.55.18-5.09.29-7.63l.38-7.63,0-1,1.08.29c1,.27,2,.5,3,.79a29,29,0,0,1,3,1c1,.37,2,.78,2.91,1.23a27.34,27.34,0,0,1,2.83,1.49l-.06.19a28.06,28.06,0,0,1-3.17-.42c-1-.18-2.07-.41-3.09-.67s-2-.54-3-.88-2-.75-3-1.11l1.13-.75-1.06,7.56c-.37,2.52-.74,5-1.14,7.56Z" transform="translate(-928.48 -871.85)"/></svg>